<?xml version="1.0" encoding="UTF-8"?>
<svg width="64px" height="64px" viewBox="0 0 64 64" version="1.1" xmlns="http://www.w3.org/2000/svg" xmlns:xlink="http://www.w3.org/1999/xlink" xmlns:sketch="http://www.bohemiancoding.com/sketch/ns">
    <!-- Generator: Sketch 3.0.4 (8054) - http://www.bohemiancoding.com/sketch -->
    <title>logo-bitcoincash-dark.min.2 2</title>
    <desc>Created with Sketch.</desc>
    <defs></defs>
    <g id="Page-1" stroke="none" stroke-width="1" fill="none" fill-rule="evenodd" sketch:type="MSPage">
        <g id="logo-bitcoincash-dark.min" sketch:type="MSLayerGroup">
            <path d="M32,0 C14.326888,-1.082166e-15 3.55271368e-15,14.326888 0,32 C-3.55271368e-15,49.673112 14.326888,64 32,64 C49.673112,64 64,49.673112 64,32 C64,14.326888 49.673112,1.082166e-15 32,0 L32,0 Z" id="Shape" fill="#F7931A" sketch:type="MSShapeGroup"></path>
            <path d="M42.313,21.356 C40.877,17.298 36.94,16.799 32.309,17.532 L30.87,11.764 L27.36,12.639 L28.76,18.255 C27.837,18.485 26.898,18.739 25.965,18.991 L24.556,13.338 L21.047,14.213 L22.484,19.98 C21.728,20.185 20.984,20.385 20.257,20.567 L16.1339349,21.9714702 L18.8949992,24.8670003 C20.316,24.513 20.985,25.223 21.297,25.902 L22.936,32.472 C23.0601284,32.4417407 23.1860464,32.4193627 23.313,32.405 L22.943,32.498 L25.237,41.703 C25.286,42.166 25.201,42.945 24.207,43.195 C24.262,43.223 21.655,43.83 21.655,43.83 L22.003,48.197 L26.572,47.057 C27.422,46.847 28.262,46.653 29.085,46.453 L30.541,52.286 L34.048,51.413 L32.609,45.641 C33.577,45.421 34.511,45.196 35.421,44.968 L36.851,50.714 L40.362,49.838 L38.912,44.015 C44.73,42.205 48.49,39.687 47.622,34.016 C46.922,29.45 44.326,27.982 40.775,28.013 C42.552,26.469 43.37,24.325 42.313,21.356 L89.0416403,-21.5231686 M40.511,35.055 C41.601,39.414 34.012,40.779 31.633,41.375 L29.707,33.645 C32.087,33.052 39.378,30.508 40.511,35.055 L40.511,35.055 Z M36.16,24.557 C37.147,28.524 30.807,29.613 28.825,30.107 L27.077,23.097 C29.059,22.603 35.127,20.42 36.16,24.557 L36.16,24.557 Z" id="Shape" fill="#FFFFFF" sketch:type="MSShapeGroup"></path>
        </g>
    </g>
</svg>